<svg width="48" height="48" viewBox="0 0 48 48" fill="none" xmlns="http://www.w3.org/2000/svg">
<g filter="url(#filter0_ddi_1_450)">
<mask id="mask0_1_450" style="mask-type:alpha" maskUnits="userSpaceOnUse" x="11" y="10" width="26" height="26">
<rect x="11" y="10" width="26" height="26" fill="#808080"/>
</mask>
<g mask="url(#mask0_1_450)">
<path d="M23.9883 13C29.518 13.0001 34 17.4774 34 23C34 28.5227 29.5171 33 23.9873 33C19.4693 32.9998 15.6499 30.0108 14.4043 25.9043L18.1572 27.4102L18.3486 29.0312L20.9453 30.0986L23.7168 29.1396L23.8789 26.6279L26.8838 24.1416L28.8711 24.3037L30.9404 22.3975L31.2646 19.7461L29.8037 16.8496L26.2959 16.2207L23.2939 18.085L23.4688 20.5283L21.5859 23.8047L20.71 23.584L19.0225 24.4238L14 22.3047C14.3572 17.1062 18.6928 13 23.9883 13ZM23.1514 25.3779L22.8477 28.4219L21.0029 29.207L19.2168 28.6191L19.0273 27.7598L20.6758 28.4219L22.0635 27.8135L22.3398 25.8232L20.1133 24.8838L21.0889 24.4238L23.1514 25.3779ZM29.4004 18.3057L30.2725 19.9473L29.8467 22.2344L27.5137 23.3701L24.8281 22.0811L24.7988 18.9502L26.9863 17.5771L29.4004 18.3057ZM25.6943 19.6611L25.8721 21.6016L27.4961 22.2344L28.8145 21.6074L29.124 20.2168L28.4961 19.1074L27.0254 18.7158L25.6943 19.6611Z" fill="url(#paint0_radial_1_450)"/>
</g>
</g>
<defs>
<filter id="filter0_ddi_1_450" x="0" y="0" width="48" height="48" filterUnits="userSpaceOnUse" color-interpolation-filters="sRGB">
<feFlood flood-opacity="0" result="BackgroundImageFix"/>
<feColorMatrix in="SourceAlpha" type="matrix" values="0 0 0 0 0 0 0 0 0 0 0 0 0 0 0 0 0 0 127 0" result="hardAlpha"/>
<feOffset dy="1"/>
<feGaussianBlur stdDeviation="7"/>
<feComposite in2="hardAlpha" operator="out"/>
<feColorMatrix type="matrix" values="0 0 0 0 0.65098 0 0 0 0 0.92549 0 0 0 0 0.317647 0 0 0 0.6 0"/>
<feBlend mode="normal" in2="BackgroundImageFix" result="effect1_dropShadow_1_450"/>
<feColorMatrix in="SourceAlpha" type="matrix" values="0 0 0 0 0 0 0 0 0 0 0 0 0 0 0 0 0 0 127 0" result="hardAlpha"/>
<feOffset dy="1"/>
<feGaussianBlur stdDeviation="1.55"/>
<feComposite in2="hardAlpha" operator="out"/>
<feColorMatrix type="matrix" values="0 0 0 0 0 0 0 0 0 0 0 0 0 0 0 0 0 0 1 0"/>
<feBlend mode="normal" in2="effect1_dropShadow_1_450" result="effect2_dropShadow_1_450"/>
<feBlend mode="normal" in="SourceGraphic" in2="effect2_dropShadow_1_450" result="shape"/>
<feColorMatrix in="SourceAlpha" type="matrix" values="0 0 0 0 0 0 0 0 0 0 0 0 0 0 0 0 0 0 127 0" result="hardAlpha"/>
<feOffset/>
<feGaussianBlur stdDeviation="3"/>
<feComposite in2="hardAlpha" operator="arithmetic" k2="-1" k3="1"/>
<feColorMatrix type="matrix" values="0 0 0 0 0.65098 0 0 0 0 0.92549 0 0 0 0 0.317647 0 0 0 0.4 0"/>
<feBlend mode="normal" in2="shape" result="effect3_innerShadow_1_450"/>
</filter>
<radialGradient id="paint0_radial_1_450" cx="0" cy="0" r="1" gradientUnits="userSpaceOnUse" gradientTransform="translate(24 23) rotate(90) scale(10)">
<stop stop-color="#EFFB63"/>
<stop offset="1" stop-color="#A1EB50"/>
</radialGradient>
</defs>
</svg>
